<svg width="267" height="226" viewBox="0 0 267 226" fill="none" xmlns="http://www.w3.org/2000/svg">
<path d="M7.26755 90.5662C5.51349 85.8561 5.19566 80.7316 6.35426 75.8409C7.51286 70.9502 10.0958 66.5129 13.7765 63.0903C17.4572 59.6677 22.0702 57.4135 27.0321 56.6128C31.994 55.8122 37.0819 56.501 41.6523 58.5922C46.2227 60.6834 50.0702 64.0831 52.7083 68.3611C55.3464 72.6392 56.6565 77.6036 56.473 82.6263C56.2894 87.649 54.6205 92.5045 51.6771 96.5786C48.7338 100.653 44.6484 103.763 39.9375 105.515C33.6229 107.863 26.634 107.608 20.5076 104.804C14.3812 102.001 9.61879 96.8799 7.26755 90.5662V90.5662Z" fill="#EBEBEB" fill-opacity="0.5"/>
<path d="M44.2945 83.3716C41.3905 91.4955 32.8527 97.1148 32.8527 97.1148C32.8527 97.1148 23.2623 93.6155 18.5578 86.3772C14.6374 80.3442 15.8426 73.1858 20.6705 71.0877C27.5892 68.0748 30.8925 80.3587 30.8925 80.3587C30.8925 80.3587 31.2773 67.6464 38.7116 68.975C43.8952 69.9043 46.7121 76.5762 44.2945 83.3716Z" fill="white" fill-opacity="0.5"/>
<path d="M245.918 187.894C241.129 190.319 235.695 191.166 230.395 190.312C225.095 189.458 220.201 186.947 216.417 183.14C212.632 179.332 210.15 174.424 209.327 169.119C208.505 163.814 209.384 158.385 211.838 153.61C214.292 148.835 218.195 144.961 222.987 142.542C227.78 140.122 233.215 139.283 238.514 140.145C243.813 141.006 248.703 143.523 252.482 147.336C256.262 151.148 258.737 156.06 259.553 161.366C260.4 166.663 259.534 172.092 257.082 176.864C254.63 181.635 250.719 185.499 245.918 187.894V187.894Z" fill="#EBEBEB" fill-opacity="0.61"/>
<path d="M242.39 163.014C242.259 164.536 241.68 165.985 240.726 167.179C239.772 168.372 238.485 169.255 237.029 169.717C235.572 170.179 234.012 170.199 232.544 169.773C231.077 169.348 229.768 168.498 228.784 167.329C227.8 166.16 227.185 164.726 227.016 163.207C226.847 161.689 227.133 160.154 227.836 158.798C228.539 157.441 229.629 156.324 230.967 155.587C232.306 154.85 233.833 154.527 235.355 154.658C237.396 154.833 239.283 155.812 240.603 157.379C241.922 158.946 242.565 160.973 242.39 163.014V163.014Z" fill="white" fill-opacity="0.5"/>
<path d="M246.186 184.75L245.918 187.923C241.711 190.053 236.992 190.967 232.294 190.562C227.596 190.156 223.104 188.448 219.324 185.629L219.593 182.471C219.895 178.944 221.586 175.682 224.293 173.402C227.001 171.122 230.503 170.011 234.029 170.314C237.556 170.616 240.818 172.307 243.098 175.014C245.378 177.722 246.489 181.224 246.186 184.75V184.75Z" fill="white" fill-opacity="0.5"/>
<path d="M197.626 62.3344C211.323 55.3013 216.725 38.4966 209.692 24.7999C202.659 11.1033 185.854 5.70142 172.157 12.7345C158.461 19.7676 153.059 36.5723 160.092 50.2689C167.125 63.9656 183.93 69.3675 197.626 62.3344Z" fill="#EBEBEB" fill-opacity="0.5"/>
<path fill-rule="evenodd" clip-rule="evenodd" d="M181.086 48.6106C180.36 48.146 179.706 47.4708 178.719 47.5652C178.341 47.5652 178.421 47.2893 178.421 47.086C178.421 43.3689 178.421 39.6591 178.421 35.9419C178.421 35.6733 178.421 35.4555 178.733 35.3031C181.572 33.8511 182.799 31.0632 184.541 28.6529C185.432 27.4593 186.074 26.0986 186.428 24.6517C186.783 23.2049 186.842 21.7016 186.603 20.2313C186.48 19.3964 186.872 19.0189 187.627 18.8519C188.004 18.7204 188.414 18.7136 188.796 18.8325C189.177 18.9515 189.511 19.1899 189.747 19.5126C190.56 21.0322 191.108 22.6798 191.366 24.384C191.525 25.7925 191.024 27.1646 190.85 28.5513C190.72 29.5749 190.48 30.5841 190.284 31.615C190.538 31.7965 190.821 31.7021 191.09 31.7021H200.528C201.849 31.7021 202.495 32.0796 202.706 32.9581C202.808 33.4987 202.73 34.0579 202.483 34.5498C202.236 35.0416 201.835 35.4389 201.341 35.6806C201.109 35.7967 200.68 35.6806 200.651 36.0581C200.622 36.4356 201.065 36.3921 201.276 36.5445C202.415 37.3213 202.205 38.9331 200.891 39.8551C200.571 40.0801 199.962 39.9785 199.947 40.4431C199.933 40.9078 200.513 40.8061 200.767 41.0675C201.689 41.975 201.232 43.6666 199.86 44.349C199.672 44.4072 199.487 44.4775 199.308 44.5596C199.156 44.6685 199.003 44.7846 199.308 44.9952C200.666 45.968 200.637 47.3184 199.265 48.3057L198.858 48.5961C198.361 48.8945 197.779 49.022 197.203 48.9591C192.285 48.9591 187.368 48.9591 182.45 48.9591C182.211 48.997 181.967 48.9857 181.732 48.9258C181.497 48.8658 181.277 48.7586 181.086 48.6106Z" fill="white" fill-opacity="0.5"/>
<path fill-rule="evenodd" clip-rule="evenodd" d="M167.096 42.0621C167.096 39.7026 167.096 37.3358 167.096 34.9836C167.096 34.5044 167.147 34.2576 167.735 34.2576C170.61 34.2963 173.487 34.2963 176.367 34.2576C176.926 34.2576 177.013 34.4463 177.013 34.9836C177.013 39.7316 177.013 44.4797 177.013 49.2277C177.013 49.8375 176.854 50.0045 176.251 49.9972C173.456 49.9972 170.668 49.9972 167.873 49.9972C167.147 49.9972 167.089 49.7649 167.096 49.1551C167.118 46.8101 167.096 44.4216 167.096 42.0621Z" fill="white" fill-opacity="0.5"/>
<path d="M75.272 166.717L22.2813 189.288L3.1875 144.465L22.5136 116.361L56.1782 121.893L75.272 166.717Z" fill="#9226C3"/>
<path opacity="0.2" d="M75.272 166.717L22.2813 189.288L3.1875 144.465L22.5136 116.361L56.1782 121.893L75.272 166.717Z" fill="black"/>
<path d="M72.0991 167.552L25.0833 187.575L0 128.689L34.9061 113.813L51.909 120.158L72.0991 167.552Z" fill="#EBEBEB"/>
<path d="M34.9062 113.813L51.9092 120.158L39.7995 125.313L34.9062 113.813Z" fill="#DBDBDB"/>
<path d="M9.56665 138.395L35.7031 127.263L35.0431 125.713L8.90664 136.845L9.56665 138.395Z" fill="#DBDBDB"/>
<path d="M11.2307 142.31L37.3672 131.178L36.7072 129.628L10.5707 140.76L11.2307 142.31Z" fill="#DBDBDB"/>
<path d="M12.9045 146.221L39.041 135.089L38.381 133.539L12.2445 144.671L12.9045 146.221Z" fill="#DBDBDB"/>
<path d="M14.5558 150.132L52.8555 133.82L52.1955 132.27L13.8958 148.583L14.5558 150.132Z" fill="#DBDBDB"/>
<path d="M16.2218 154.047L54.5215 137.734L53.8615 136.185L15.5618 152.497L16.2218 154.047Z" fill="#DBDBDB"/>
<path d="M17.8937 157.958L56.1934 141.646L55.5333 140.096L17.2337 156.409L17.8937 157.958Z" fill="#DBDBDB"/>
<path d="M19.5558 161.866L57.8555 145.554L57.1955 144.004L18.8958 160.317L19.5558 161.866Z" fill="#DBDBDB"/>
<path d="M21.2277 165.778L59.5273 149.466L58.8673 147.916L20.5677 164.228L21.2277 165.778Z" fill="#DBDBDB"/>
<path d="M22.8859 169.692L61.1855 153.38L60.5255 151.83L22.2259 168.143L22.8859 169.692Z" fill="#DBDBDB"/>
<path d="M24.5578 173.604L62.8574 157.292L62.1974 155.742L23.8978 172.055L24.5578 173.604Z" fill="#DBDBDB"/>
<path d="M26.2218 177.512L64.5215 161.199L63.8615 159.65L25.5618 175.962L26.2218 177.512Z" fill="#DBDBDB"/>
<path d="M27.8918 181.416L66.1914 165.104L65.5314 163.554L27.2317 179.867L27.8918 181.416Z" fill="#DBDBDB"/>
<path d="M60.9542 133.117L75.2709 166.717L22.2729 189.288L7.9707 155.711C10.7948 156.03 13.6045 156.437 16.4213 156.792C19.2382 157.148 22.0551 157.569 24.8647 157.99C27.9962 158.44 31.1422 158.924 34.3027 159.442L34.3608 159.355C34.3608 159.355 34.3608 159.413 34.3172 159.442L41.3594 160.546C42.7171 158.6 44.0674 156.64 45.4323 154.701C45.4323 154.701 45.3815 154.701 45.3452 154.701H45.4468C47.2618 152.102 49.0889 149.513 50.9281 146.933C52.5786 144.625 54.2387 142.323 55.9085 140.029C57.571 137.677 59.2263 135.383 60.9542 133.117Z" fill="#9226C3"/>
<g opacity="0.2">
<path d="M60.9542 133.117C59.4586 135.528 57.8905 137.902 56.3659 140.298C54.8413 142.693 53.2441 145.046 51.6686 147.412C50.0932 149.779 48.3581 152.342 46.6955 154.789L46.5503 155.021L42.1 161.519L41.8749 161.831L41.5046 161.773C38.9128 161.344 36.3355 160.909 33.751 160.466L33.4751 160.422C30.5711 159.929 27.6671 159.428 24.705 158.898C21.9172 158.404 19.1221 157.881 16.327 157.359C13.5319 156.836 10.7513 156.284 7.9707 155.696C10.7948 156.015 13.6045 156.422 16.4213 156.778C19.2382 157.134 22.0551 157.555 24.8647 157.976C27.9962 158.426 31.1422 158.91 34.3027 159.428L41.3449 160.531C42.7025 158.586 44.0529 156.625 45.4178 154.687C47.2328 152.088 49.0599 149.498 50.8991 146.919C52.5495 144.61 54.2096 142.309 55.8794 140.014C57.571 137.677 59.2263 135.383 60.9542 133.117Z" fill="black"/>
<path d="M34.324 159.341C34.324 159.341 34.324 159.399 34.2804 159.428C34.1062 159.783 33.9319 160.154 33.7504 160.488C32.901 162.179 31.9935 163.835 31.057 165.461C29.9171 167.472 28.712 169.439 27.4996 171.407C26.2871 173.374 25.0312 175.291 23.7244 177.215C22.4176 179.139 21.0962 181.012 19.666 182.834C20.6679 180.743 21.7859 178.718 22.9258 176.714C24.0656 174.71 25.2707 172.735 26.4759 170.775C27.6811 168.815 28.9516 166.884 30.2584 164.967C31.2893 163.442 32.3565 161.925 33.4745 160.451C33.7359 160.11 33.9973 159.769 34.2659 159.435L34.324 159.341Z" fill="black"/>
<path d="M72.3957 160.328C70.087 160.096 67.8001 159.747 65.5277 159.362C63.2553 158.978 60.9902 158.528 58.7251 158.077C56.46 157.627 54.2166 157.09 51.9805 156.524C50.1583 156.066 48.3505 155.58 46.5501 155.021L45.3957 154.658C45.3957 154.658 45.3449 154.658 45.3086 154.658H45.4102C45.8458 154.709 46.2669 154.752 46.6953 154.81C48.532 155.021 50.3253 155.304 52.1766 155.609C54.4562 155.994 56.7141 156.444 58.9719 156.909C61.2298 157.373 63.4804 157.896 65.7165 158.462C67.9525 159.028 70.1886 159.602 72.3957 160.328Z" fill="black"/>
</g>
<path d="M190.596 112.717L198.56 109.58L189.471 86.5007L179.387 90.472L190.596 112.717Z" fill="#9226C3"/>
<path d="M179.387 90.472L183.663 98.9589L190.596 112.717L198.568 109.58L189.471 86.5007L179.387 90.472Z" fill="#9226C3"/>
<path opacity="0.1" d="M179.387 90.472L183.663 98.9589L192.941 95.2998L189.471 86.5007L179.387 90.472Z" fill="black"/>
<path d="M179.789 94.2763L192.332 89.333L188.576 79.8026L176.033 84.7459L179.789 94.2763Z" fill="#9226C3"/>
<path d="M166.26 84.5477L176.395 81.68L170.319 66.2598L160.953 71.0731L166.26 84.5477Z" fill="#9226C3"/>
<path d="M174.131 61.2285L183.097 83.9886L200.223 79.5019L243.754 78.5145L222.214 23.854L189.711 52.8287L174.131 61.2285Z" fill="#9226C3"/>
<path d="M244.696 78.2747C249.571 76.3532 248.678 62.4998 242.7 47.3322C236.723 32.1647 227.924 21.4267 223.049 23.3482C218.173 25.2697 219.067 39.1231 225.044 54.2907C231.022 69.4582 239.82 80.1962 244.696 78.2747Z" fill="#9226C3"/>
<path opacity="0.2" d="M243.749 74.5459C247.741 72.9728 246.674 60.7808 241.367 47.3143C236.06 33.8478 228.521 24.2063 224.53 25.7794C220.538 27.3524 221.605 39.5444 226.912 53.0109C232.22 66.4775 239.758 76.119 243.749 74.5459Z" fill="black"/>
<path d="M228.094 52.5675C228.82 54.3607 229.546 56.0886 230.323 57.7221C231.379 58.0595 232.51 58.0897 233.583 57.8093C234.655 57.529 235.627 56.9495 236.383 56.1385C237.139 55.3275 237.649 54.3183 237.854 53.2285C238.059 52.1387 237.95 51.0132 237.539 49.983L236.523 47.4057C236.121 46.3778 235.436 45.4846 234.548 44.8292C233.66 44.1738 232.605 43.7829 231.504 43.7017C230.404 43.6204 229.302 43.8522 228.328 44.3701C227.353 44.8881 226.545 45.6711 225.996 46.6288C226.591 48.56 227.296 50.5492 228.094 52.5675Z" fill="#9226C3"/>
<path d="M174.77 88.7294L194.357 83.1827L182.61 53.3586L164.504 62.666L174.77 88.7294Z" fill="#9226C3"/>
<path opacity="0.2" d="M174.77 88.7294L194.357 83.1827L182.61 53.3586L164.504 62.666L174.77 88.7294Z" fill="black"/>
<path opacity="0.2" d="M221.132 28.6094C220.498 30.7258 220.252 32.9394 220.406 35.1434C220.493 37.3556 220.755 39.5575 221.19 41.7282C221.379 42.8245 221.669 43.9062 221.916 44.9734C222.163 46.0406 222.504 47.1079 222.838 48.1606C223.172 49.2133 223.506 50.2732 223.891 51.3114C224.275 52.3496 224.617 53.395 225.052 54.4259C226.663 58.5542 228.646 62.5273 230.976 66.296C232.16 68.1718 233.506 69.9403 234.998 71.5813C236.462 73.2566 238.267 74.6005 240.291 75.5235C238.333 74.5015 236.604 73.0909 235.209 71.378C233.777 69.7108 232.492 67.9231 231.368 66.0347C229.115 62.2577 227.191 58.2936 225.619 54.1864C223.945 50.1195 222.612 45.921 221.633 41.6338C221.137 39.4848 220.812 37.3 220.66 35.0998C220.44 32.9253 220.6 30.7292 221.132 28.6094V28.6094Z" fill="black"/>
<path d="M241.169 23.825C240.342 24.8123 239.558 25.836 238.788 26.8596C238.019 27.8833 237.271 28.936 236.53 29.9887C235.79 31.0414 235.078 32.1086 234.352 33.1904L233.314 34.8239C232.987 35.3756 232.646 35.9201 232.334 36.4864C232.755 35.9927 233.14 35.4845 233.546 34.9836L234.715 33.4445C235.499 32.4208 236.24 31.3754 236.973 30.3227C237.706 29.27 238.425 28.2027 239.151 27.1137C239.877 26.0247 240.538 24.9503 241.169 23.825Z" fill="#263238"/>
<path d="M241.662 62.1216C243.114 62.2014 244.566 62.216 246.018 62.2232C247.47 62.2305 248.922 62.2232 250.374 62.1651C251.826 62.1071 253.278 62.0635 254.73 61.9691L256.908 61.8239C257.634 61.7586 258.36 61.7078 259.086 61.6206C258.36 61.5771 257.634 61.5698 256.908 61.5408H254.73C253.278 61.5408 251.826 61.5408 250.374 61.5989C248.922 61.6569 247.47 61.7005 246.018 61.7949C244.566 61.8893 243.114 61.9619 241.662 62.1216Z" fill="#263238"/>
<path d="M266.811 51.8413C264.691 52.1027 262.586 52.4294 260.48 52.7561C258.375 53.0828 256.27 53.4821 254.171 53.8305C252.073 54.179 249.982 54.6001 247.891 55.0284L244.762 55.6746C243.724 55.9142 242.679 56.132 241.641 56.4006C242.701 56.2772 243.753 56.1175 244.813 55.9723L247.971 55.4858C250.077 55.1591 252.182 54.7598 254.28 54.4186C256.378 54.0774 258.469 53.6418 260.56 53.2134C262.651 52.7851 264.735 52.3422 266.811 51.8413Z" fill="#263238"/>
<path d="M252.915 21.8647C251.369 23.3748 249.858 24.9285 248.363 26.4894C246.867 28.0503 245.394 29.6257 243.927 31.2156C242.461 32.8056 241.023 34.4028 239.571 36.029L237.437 38.4756C236.711 39.3033 236.028 40.1164 235.346 40.9586C236.13 40.2326 236.878 39.4267 237.647 38.6644L239.898 36.3339C241.401 34.7803 242.874 33.1976 244.341 31.6077C245.807 30.0177 247.245 28.4133 248.697 26.787C250.149 25.1608 251.543 23.5345 252.915 21.8647Z" fill="#263238"/>
<path d="M239.166 48.5017C241.526 47.6741 243.856 46.7884 246.186 45.8954C248.517 45.0024 250.826 44.0586 253.149 43.1366C255.472 42.2146 257.766 41.2417 260.06 40.2326L263.502 38.7806C264.641 38.2724 265.781 37.7714 266.914 37.2415C265.738 37.648 264.569 38.0909 263.393 38.5192L259.893 39.8551C257.563 40.748 255.254 41.6918 252.931 42.6066C250.608 43.5214 248.314 44.5015 246.019 45.5106C243.725 46.5197 241.431 47.4563 239.166 48.5017Z" fill="#263238"/>
<path d="M182.211 82.9796C182.214 83.1516 182.156 83.3189 182.047 83.4518C181.938 83.5848 181.785 83.6747 181.616 83.7056C180.796 83.7492 179.808 83.7782 178.712 83.8145C176.295 76.9611 173.63 71.4725 174.313 73.6142C175.336 76.9498 175.855 80.4198 175.852 83.9089L170.094 84.0396C168.171 72.0243 165.513 63.0872 165.615 65.8243C166.036 76.874 165.288 80.4023 164.417 84.163C150.536 84.4244 132.335 84.5696 119.18 84.3953C117.844 77.7452 116.712 70.565 116.472 71.0587C114.57 74.7395 113.938 80.141 113.779 84.3082C109.59 84.2211 106.243 84.0759 104.21 83.8871C104.21 83.8871 103.382 78.3042 103.295 76.4747C103.061 71.7737 103.699 67.07 105.176 62.6008C106.7 58.0125 109.219 53.9905 111.615 49.8595C111.633 49.8258 111.655 49.7941 111.681 49.7651C113.259 47.0817 114.514 44.2207 115.419 41.2419C115.425 41.2204 115.425 41.198 115.419 41.1766C116.038 39.0238 116.463 36.8201 116.69 34.5917C117.525 26.446 122.316 19.52 130.041 17.5743C144.902 4.33206 159.248 10.4668 163.335 21.0446C163.727 22.0755 164.105 23.2226 164.468 24.5366V24.5802C165.826 29.3355 166.98 35.4702 168.098 40.2473C168.098 40.2473 168.098 40.2473 168.098 40.2981C168.507 42.1654 169.031 44.0057 169.666 45.8084C173.093 54.4333 181.318 59.4935 182.211 82.9796Z" fill="#263238"/>
<path d="M126.636 19.7014C121.554 22.1843 118.345 25.9378 117.401 31.8692C116.849 35.3249 116.522 38.7081 115.1 41.9461C113.677 45.184 111.375 48.0009 109.059 50.7089C105.386 55.0141 102.779 59.3338 102.068 65.1563C101.356 70.9788 101.436 78.0863 103.28 83.6765H103.331C101.879 78.021 102.039 70.2455 103.2 64.394C104.478 57.9616 108.246 53.9977 112.123 49.1915C115.225 45.4468 117.253 40.9302 117.989 36.1235C118.446 33.2195 118.49 30.134 119.746 27.4115C121.256 24.1445 124.102 22.1117 127.006 20.3185C127.046 20.2942 127.082 20.2622 127.11 20.2242C127.138 20.1862 127.158 20.1431 127.17 20.0972C127.181 20.0514 127.184 20.0038 127.177 19.957C127.17 19.9103 127.154 19.8654 127.129 19.8248C127.105 19.7843 127.073 19.749 127.035 19.7209C126.997 19.6927 126.954 19.6724 126.908 19.6609C126.862 19.6494 126.815 19.6471 126.768 19.6541C126.721 19.661 126.676 19.6771 126.636 19.7014Z" fill="#263238"/>
<path d="M177.855 55.1738C174.436 50.4548 170.842 46.411 168.926 40.6538C167.176 35.3758 166.247 29.8219 164.461 24.5439C164.461 24.5265 164.454 24.5099 164.442 24.4977C164.429 24.4854 164.413 24.4785 164.395 24.4785C164.378 24.4785 164.361 24.4854 164.349 24.4977C164.337 24.5099 164.33 24.5265 164.33 24.5439C167.045 33.902 167.365 43.2747 173.136 51.2316C176.273 55.5876 179.416 59.5734 181.42 64.7134C183.452 70.0968 184.437 75.8183 184.324 81.5712C184.324 81.6097 184.339 81.6466 184.367 81.6738C184.394 81.7011 184.431 81.7164 184.469 81.7164C184.508 81.7164 184.545 81.7011 184.572 81.6738C184.599 81.6466 184.615 81.6097 184.615 81.5712C185.751 72.2358 183.338 62.8143 177.855 55.1738Z" fill="#263238"/>
<path d="M131.792 16.0569C131.559 18.0171 121.954 22.1407 115.58 16.7103C109.206 11.2798 112.625 1.51509 121.693 3.06873C127.429 4.04883 132.293 11.9187 131.792 16.0569Z" fill="#263238"/>
<path d="M112.762 7.64259C113.917 5.29908 115.835 3.41759 118.199 2.30649C119.293 1.76291 120.51 1.51697 121.728 1.59344C122.947 1.66992 124.123 2.0661 125.14 2.74209C127.233 4.207 128.887 6.21504 129.924 8.55009C130.489 9.71696 130.948 10.9318 131.296 12.1801C131.7 13.4355 131.868 14.755 131.79 16.0715C132.154 14.7574 132.226 13.3796 132.001 12.0349C131.816 10.6781 131.472 9.34764 130.977 8.07093C130.015 5.4215 128.251 3.13765 125.931 1.53693C124.7 0.737552 123.275 0.288318 121.808 0.237389C120.36 0.224436 118.935 0.59517 117.677 1.31187C116.471 1.97888 115.414 2.88403 114.569 3.97232C113.724 5.06061 113.109 6.30933 112.762 7.64259Z" fill="#263238"/>
<path d="M159.037 83.1901C191.831 106.037 236.305 153.271 232.051 166.404C227.31 181.026 181.296 153.765 182.124 151.587C182.85 149.735 162.123 116.811 147.044 92.7225C131.965 68.6338 150.913 77.5418 159.037 83.1901Z" fill="#F7A9A0"/>
<path d="M199.061 110.437L161.665 125.313C161.665 125.313 146.419 99.7721 141.337 84.8891C138.52 76.5473 143.478 75.1752 150.731 78.4422C176.141 89.8622 199.061 110.437 199.061 110.437Z" fill="#455A64"/>
<path d="M163.844 85.1722C159.814 84.5914 155.724 84.5548 151.683 85.0633C148.416 85.4118 145.149 85.9272 141.919 86.4427C141.832 86.2176 141.752 85.9926 141.672 85.7675C144.968 85.2521 148.278 84.7439 151.618 84.3881C155.166 83.9598 158.75 83.9306 162.305 84.301L163.844 85.1722ZM173.217 90.9294C170.567 91.6554 167.91 92.3814 165.231 92.9694C161.071 93.8479 156.816 94.632 152.598 94.2399C150.489 94.0143 148.416 93.5266 146.427 92.7879C145.629 92.4903 144.837 92.1491 144.068 91.7788L144.329 92.3741C144.961 92.679 145.607 92.9622 146.267 93.2163C148.283 94.0034 150.391 94.5303 152.54 94.7844C154.695 94.9711 156.864 94.9248 159.009 94.6465C161.143 94.3887 163.261 94.013 165.354 93.5212C168.185 92.8678 170.988 92.0692 173.768 91.2779L173.217 90.9294ZM190.546 103.38C187.374 106.074 184.179 108.738 180.832 111.199C177.485 113.66 173.812 116.122 169.797 117.479C167.777 118.123 165.684 118.515 163.568 118.648C161.597 118.753 159.621 118.673 157.666 118.408L157.913 118.83C159.795 119.092 161.698 119.184 163.597 119.105C165.759 119.012 167.899 118.639 169.964 117.995C172.011 117.3 173.976 116.382 175.823 115.258C177.674 114.15 179.46 112.938 181.174 111.628C184.535 109.101 187.744 106.379 190.916 103.642L190.546 103.38ZM189.392 102.48C187.315 102.48 185.232 102.625 183.156 102.814C181.015 103.032 178.89 103.388 176.796 103.881C172.61 104.942 168.605 106.618 164.911 108.854C161.724 110.691 158.639 112.68 155.568 114.662C155.691 114.873 155.8 115.069 155.909 115.272C159.002 113.276 162.072 111.257 165.252 109.464C168.891 107.26 172.827 105.59 176.941 104.506C179.006 103.996 181.101 103.62 183.214 103.38C185.334 103.162 187.461 103.01 189.595 102.974H189.987L189.392 102.48Z" fill="#37474F"/>
<path d="M194.051 112.433L161.657 125.305C161.657 125.305 146.411 99.7719 141.365 84.8962C139.565 79.5528 140.952 77.0699 144.081 76.8303L194.051 112.433Z" fill="#37474F"/>
<path d="M160.628 118.902C166.197 116.136 181.501 109.072 192.049 105.783C192.115 105.783 192.216 106.001 192.158 106.03C183.795 110.088 166.567 116.978 160.781 119.243C160.672 119.287 160.527 118.953 160.628 118.902Z" fill="#263238"/>
<path d="M184.949 193.535H89.5234C89.5234 193.535 93.393 119.221 125.729 82.3842C134.441 72.4525 148.17 74.8701 155.161 82.1156C166.712 94.0946 180.346 120.1 181.384 125.777C183.098 135.157 177.703 145.292 177.703 145.292L184.949 193.535Z" fill="#455A64"/>
<path d="M179.952 160.466C177.477 161.192 174.979 161.918 172.46 162.498C168.291 163.538 164.041 164.218 159.755 164.531C157.608 164.665 155.455 164.665 153.308 164.531C151.159 164.346 149.036 163.927 146.978 163.282C142.884 161.957 138.98 160.107 135.362 157.779C131.732 155.536 128.225 153.039 124.639 150.708C122.664 149.409 120.66 148.145 118.598 146.991L117.778 146.541C116.377 145.779 114.946 145.089 113.48 144.45C111.527 143.61 109.497 142.963 107.418 142.519C105.341 142.097 103.219 141.933 101.102 142.032C99.9334 142.113 98.7717 142.271 97.6241 142.504C97.6749 142.301 97.7257 142.098 97.7838 141.895C98.8674 141.686 99.9637 141.55 101.065 141.488C103.23 141.404 105.397 141.6 107.512 142.069C109.613 142.548 111.663 143.228 113.632 144.102C115.195 144.79 116.722 145.558 118.206 146.403C118.482 146.548 118.743 146.701 119.012 146.86C120.98 148 122.896 149.234 124.776 150.49C128.327 152.886 131.833 155.347 135.492 157.547C139.113 159.85 143.018 161.672 147.108 162.97C149.146 163.584 151.244 163.973 153.366 164.132C155.493 164.235 157.625 164.203 159.748 164.037C163.997 163.667 168.209 162.955 172.344 161.91C174.878 161.3 177.426 160.582 179.88 159.812L179.952 160.466ZM179.553 157.801C178.297 157.075 177.063 156.255 175.843 155.449C172.257 153.118 168.772 150.621 165.12 148.378C161.499 146.054 157.596 144.205 153.504 142.875C151.448 142.231 149.328 141.812 147.181 141.626C145.034 141.492 142.881 141.492 140.734 141.626C136.446 141.939 132.193 142.619 128.022 143.659C124.718 144.45 121.451 145.401 118.213 146.403L117.785 146.541L115.665 147.202C111.578 148.494 107.534 149.873 103.41 150.962C100.75 151.697 98.0361 152.221 95.2936 152.53C95.2428 152.763 95.1993 152.988 95.1484 153.213C97.999 152.913 100.82 152.381 103.585 151.623C108.667 150.265 113.618 148.566 118.605 146.991L119.019 146.86C122.047 145.909 125.089 145.009 128.174 144.269C132.308 143.217 136.521 142.503 140.77 142.134C142.891 141.972 145.02 141.941 147.145 142.04C149.267 142.198 151.365 142.587 153.403 143.201C157.476 144.487 161.366 146.296 164.975 148.581C168.641 150.759 172.148 153.242 175.698 155.638C176.983 156.502 178.283 157.351 179.604 158.164L179.553 157.801ZM156.931 84.0541C155.152 84.0541 153.374 84.2065 151.617 84.388C146.39 84.9471 141.228 85.84 136.059 86.6532L135.623 86.7185C132.487 87.1977 129.343 87.6188 126.185 87.8801C124.493 88.0181 122.795 88.1269 121.103 88.1778L120.66 88.7876C122.526 88.7876 124.384 88.6497 126.243 88.5045C129.633 88.2286 133.002 87.7785 136.356 87.2993L136.806 87.234L138.984 86.9C143.217 86.2539 147.428 85.5133 151.668 85.0632C153.596 84.8463 155.535 84.73 157.476 84.7148C157.316 84.4897 157.127 84.2719 156.931 84.0541ZM163.98 93.2235C160.213 93.993 156.379 94.5956 152.575 94.2399C150.466 94.0142 148.393 93.5265 146.404 92.7879C144.415 92.0304 142.506 91.0771 140.705 89.9419C139.355 89.0998 138.048 88.185 136.785 87.2267L136.059 86.6459C134.2 85.1939 132.429 83.6257 130.664 82.0431C129.873 81.3171 129.096 80.5911 128.312 79.9014L128.145 80.0393L130.49 82.2173C132.16 83.7564 133.851 85.2738 135.623 86.6967C135.863 86.9 136.102 87.0888 136.349 87.2775C137.69 88.3389 139.083 89.3323 140.523 90.2541C142.336 91.4194 144.256 92.4065 146.259 93.2017C148.275 93.9888 150.382 94.5157 152.531 94.7698C154.686 94.9565 156.855 94.9102 159 94.6319C160.81 94.4141 162.596 94.1116 164.358 93.7244L163.98 93.2235ZM176.46 114.176C174.372 115.537 172.13 116.645 169.781 117.479C167.761 118.123 165.669 118.515 163.552 118.648C161.428 118.759 159.297 118.66 157.192 118.35C155.61 118.133 154.049 117.82 152.502 117.45L151.638 117.232C149.344 116.644 147.086 115.94 144.843 115.199C140.77 113.885 136.763 112.375 132.654 111.156C128.557 109.846 124.309 109.073 120.014 108.854C117.861 108.765 115.704 108.908 113.582 109.283C111.831 109.63 110.105 110.088 108.412 110.655L108.151 111.265C109.952 110.628 111.792 110.111 113.661 109.718C115.751 109.316 117.88 109.148 120.007 109.217C124.274 109.398 128.501 110.13 132.581 111.395C136.69 112.571 140.712 114.031 144.763 115.425C146.905 116.151 149.076 116.877 151.297 117.45L152.19 117.682C153.847 118.11 155.523 118.454 157.214 118.713C159.343 119.05 161.5 119.176 163.654 119.091C165.815 118.997 167.955 118.624 170.021 117.98C172.068 117.285 174.033 116.367 175.88 115.243L176.794 114.684L176.46 114.176ZM171.72 105.464C169.373 106.43 167.095 107.555 164.903 108.832C160.35 111.482 155.994 114.415 151.638 117.232L151.268 117.465C148.597 119.163 145.896 120.826 143.108 122.343C139.386 124.428 135.501 126.207 131.492 127.665C129.485 128.373 127.436 128.957 125.357 129.415C123.266 129.81 121.139 129.978 119.012 129.916C114.747 129.731 110.523 128.999 106.445 127.738C105.07 127.345 103.71 126.927 102.365 126.482C102.365 126.547 102.314 126.619 102.292 126.692C103.643 127.142 105 127.578 106.365 127.984C110.45 129.292 114.686 130.07 118.968 130.3C121.122 130.391 123.279 130.245 125.401 129.865C127.509 129.431 129.587 128.863 131.623 128.166C135.682 126.755 139.612 124.997 143.369 122.91C146.36 121.291 149.257 119.526 152.125 117.719C152.256 117.639 152.386 117.559 152.51 117.472C153.141 117.08 153.766 116.681 154.39 116.281C158.02 113.98 161.548 111.591 165.28 109.471C167.47 108.185 169.748 107.055 172.097 106.088C171.966 105.878 171.85 105.682 171.734 105.486L171.72 105.464ZM181.993 173.947C178.907 173.128 175.743 172.641 172.555 172.495C170.401 172.406 168.245 172.549 166.122 172.924C164.015 173.36 161.937 173.928 159.9 174.623C155.842 176.035 151.911 177.794 148.154 179.879C145.163 181.498 142.259 183.262 139.391 185.07C139.267 185.157 139.137 185.237 139.006 185.317L137.118 186.565C133.488 188.867 129.953 191.248 126.228 193.375L125.945 193.535H127.303C131.594 191.023 135.703 188.257 139.877 185.6L140.248 185.36C142.919 183.661 145.62 181.999 148.408 180.481C152.129 178.394 156.013 176.615 160.024 175.16C162.026 174.444 164.073 173.86 166.151 173.41C168.241 173.008 170.369 172.84 172.496 172.909C175.709 173.021 178.901 173.481 182.014 174.281L181.993 173.947ZM184.577 191.125C184.388 191.204 184.2 191.27 184.011 191.335C182.005 192.046 179.956 192.631 177.876 193.085C176.795 193.297 175.701 193.44 174.602 193.513C173.578 193.586 172.562 193.607 171.538 193.586C171.044 193.586 170.551 193.549 170.086 193.513C166.323 193.209 162.603 192.498 158.993 191.393C154.884 190.217 150.862 188.751 146.811 187.357C144.633 186.631 142.498 185.905 140.277 185.338L139.376 185.099C137.722 184.672 136.048 184.328 134.36 184.068C132.23 183.739 130.074 183.613 127.92 183.69C125.757 183.791 123.615 184.164 121.546 184.801C119.499 185.5 117.534 186.42 115.687 187.545C113.84 188.655 112.056 189.867 110.344 191.175C109.313 191.945 108.296 192.734 107.294 193.542H108.158C108.986 192.894 109.826 192.257 110.678 191.633C114.126 189.143 117.698 186.71 121.72 185.353C123.737 184.706 125.827 184.313 127.942 184.184C130.066 184.07 132.197 184.167 134.302 184.474C135.877 184.699 137.438 185.004 138.992 185.375L139.906 185.607C142.193 186.18 144.458 186.885 146.702 187.625C150.767 188.947 154.782 190.457 158.891 191.676C161.531 192.484 164.224 193.107 166.95 193.542C168.464 193.779 169.992 193.924 171.524 193.978C173.677 194.069 175.834 193.923 177.956 193.542C180.064 193.109 182.142 192.542 184.178 191.843L184.65 191.676L184.577 191.125Z" fill="#37474F"/>
<path d="M148.576 138.649C152.938 139.077 157.262 139.827 161.513 140.893C163.618 141.452 165.68 142.105 167.742 142.809C168.773 143.158 169.804 143.47 170.842 143.775C171.924 144.132 173.045 144.354 174.182 144.436C174.198 144.441 174.212 144.451 174.222 144.465C174.232 144.478 174.238 144.495 174.238 144.512C174.238 144.529 174.232 144.545 174.222 144.559C174.212 144.573 174.198 144.583 174.182 144.588C173.109 144.632 172.034 144.603 170.965 144.501C169.934 144.369 168.913 144.168 167.909 143.898C165.767 143.354 163.655 142.708 161.52 142.134C157.208 140.987 152.903 139.84 148.525 139.012C148.486 138.997 148.453 138.968 148.432 138.932C148.411 138.895 148.402 138.853 148.408 138.811C148.414 138.769 148.434 138.731 148.464 138.701C148.494 138.672 148.534 138.654 148.576 138.649Z" fill="#263238"/>
<path d="M137.751 142.425C141.351 142.079 144.967 141.936 148.583 141.996C150.391 141.996 152.213 142.178 153.984 142.366C154.841 142.454 155.698 142.563 156.554 142.679C157.411 142.795 158.42 143.063 159.364 143.18C159.466 143.18 159.458 143.339 159.364 143.332C158.471 143.252 157.556 143.332 156.663 143.289L153.962 143.194C152.162 143.136 150.332 143.093 148.554 143.02C144.924 142.86 141.352 142.744 137.744 142.715C137.548 142.715 137.569 142.439 137.751 142.425Z" fill="#263238"/>
<path d="M232.022 166.107C228.297 176.481 212.158 182.659 172.984 202.044C167.56 204.723 138.346 171.552 143.987 168.394C151.095 164.408 179.561 150.498 181.739 149.743C200.368 143.368 234.541 159.064 232.022 166.107Z" fill="#F7A9A0"/>
<path d="M104.5 212.375C108.413 215.794 116.022 205.434 116.022 205.434C115.732 207.655 116.228 209.907 117.423 211.801C119.688 215.039 125.757 212.912 125.757 212.912C125.938 215.278 126.823 217.536 128.298 219.395C130.781 222.299 137.206 221 137.206 221C138.598 223.049 140.647 224.562 143.014 225.29C153.716 228.107 172.577 206.48 176.65 199.154L152.808 164.088C152.808 164.088 125.351 172.074 117.372 180.576C112.965 185.309 98.5178 207.147 104.5 212.375Z" fill="#F7A9A0"/>
<path d="M201.32 149.082C198.068 148.138 189.102 146.309 181.784 149.663C181.768 149.67 181.756 149.682 181.749 149.698C181.742 149.713 181.74 149.73 181.745 149.747C181.749 149.763 181.759 149.777 181.772 149.787C181.786 149.797 181.803 149.802 181.82 149.801C188.121 147.935 198.06 148.559 201.291 149.213C201.308 149.216 201.327 149.213 201.342 149.204C201.357 149.194 201.367 149.179 201.371 149.162C201.375 149.144 201.372 149.126 201.362 149.111C201.353 149.096 201.337 149.086 201.32 149.082Z" fill="#263238"/>
<path d="M131.312 90.1453C129.961 105.558 109.212 175.291 76.702 185.919C65.6668 189.549 49.3318 146.134 53.332 95.2926C53.4482 93.7898 87.6646 86.0724 90.496 93.935C90.8009 94.7771 93.4 117.407 92.4344 117.167C91.2074 116.877 101.604 105.442 118.658 86.6169C126.738 77.7234 132.139 80.9323 131.312 90.1453Z" fill="#F7A9A0"/>
<path d="M91.8679 115.388C93.211 126.968 94.3218 138.62 95.1131 150.236C95.3309 153.482 95.585 156.719 95.8391 159.965C95.8391 160.081 96.0352 160.059 96.0352 159.965C96.2482 154.132 96.1561 148.291 95.7593 142.468C95.3745 136.704 94.8663 130.852 93.9153 125.175C93.3708 121.893 92.7754 118.641 92.1075 115.374C92.0567 115.2 91.8534 115.25 91.8679 115.388Z" fill="#263238"/>
<path d="M53.2736 105.34C50.5148 101.71 39.3271 83.9451 37.3016 78.3041C35.276 72.663 30.695 56.0159 34.8622 54.0411C39.0295 52.0664 40.7573 56.829 40.7573 56.829C40.7573 56.829 39.9297 49.4964 44.3002 47.8847C48.6707 46.2729 51.1319 53.787 51.1319 53.787C51.1319 53.787 50.827 46.1858 55.2991 44.9008C59.7713 43.6158 60.9837 51.5655 60.9837 51.5655C60.9837 51.5655 60.3811 44.6322 64.5193 45.1186C69.4924 45.7067 69.1512 58.6149 71.8374 64.677C72.44 66.0492 86.1686 91.6842 86.1686 91.6842L53.2736 105.34Z" fill="#F7A9A0"/>
<path d="M60.8899 50.8832C60.6649 60.3793 62.204 64.5683 67.0028 72.5906C67.0972 72.7431 66.8867 72.9246 66.7705 72.7649C61.3618 65.3379 58.6684 60.3648 60.4325 50.8542C60.5124 50.3823 60.8899 50.4404 60.8899 50.8832Z" fill="#263238"/>
<path d="M51.1828 53.0321C51.8072 62.9129 53.4407 67.4722 57.8475 76.2641C57.9128 76.3875 57.7096 76.5036 57.637 76.3875C52.555 68.1474 50.014 63.1162 50.6891 53.1555C50.7254 52.6908 51.1538 52.6182 51.1828 53.0321Z" fill="#263238"/>
<path d="M41.018 57.272C42.3103 66.7899 43.922 71.8719 49.2581 79.8361C49.2812 79.8729 49.2898 79.917 49.282 79.9598C49.2743 80.0026 49.2508 80.0409 49.2163 80.0673C49.1817 80.0937 49.1385 80.1062 49.0952 80.1023C49.0519 80.0985 49.0116 80.0786 48.9822 80.0466C42.7096 72.4599 40.6986 66.1365 40.7349 57.3446C40.7349 56.742 40.9381 56.6694 41.018 57.272Z" fill="#263238"/>
<path d="M73.9579 26.78H47.7711C47.0618 26.7877 46.3846 27.0763 45.8878 27.5826C45.3911 28.0889 45.1154 28.7715 45.1212 29.4807V83.3645C45.1154 84.0737 45.3911 84.7563 45.8878 85.2626C46.3846 85.7689 47.0618 86.0575 47.7711 86.0652H73.9579C74.6671 86.0575 75.3444 85.7689 75.8412 85.2626C76.3379 84.7563 76.6136 84.0737 76.6078 83.3645V29.4807C76.6136 28.7715 76.3379 28.0889 75.8412 27.5826C75.3444 27.0763 74.6671 26.7877 73.9579 26.78ZM74.9525 81.7019C74.9652 82.0261 74.9137 82.3497 74.8012 82.654C74.6887 82.9583 74.5173 83.2375 74.2968 83.4755C74.0763 83.7135 73.8111 83.9057 73.5162 84.0412C73.2214 84.1766 72.9027 84.2525 72.5785 84.2647H49.1505C48.4963 84.2382 47.8793 83.9538 47.4344 83.4735C46.9894 82.9932 46.7529 82.3562 46.7765 81.7019V31.5208C46.7765 28.6168 47.8437 28.4934 49.1505 28.4934H53.8477C54.1163 28.4934 54.3414 28.8056 54.3414 29.2194V29.3864C54.3414 30.2866 54.8351 30.2939 55.4376 30.2939H66.2841C66.8939 30.2939 67.3876 30.2939 67.3876 29.3864V29.2194C67.3876 28.8419 67.6054 28.4934 67.8813 28.4934H72.5712C73.8853 28.4934 74.9453 28.8782 74.9453 31.5208L74.9525 81.7019Z" fill="#37474F"/>
<path d="M74.9438 31.5644V81.7455C74.9565 82.0697 74.9051 82.3932 74.7925 82.6976C74.68 83.0019 74.5086 83.2811 74.2881 83.5191C74.0677 83.7571 73.8024 83.9493 73.5075 84.0847C73.2127 84.2202 72.894 84.2961 72.5698 84.3083H49.1563C48.5009 84.2837 47.882 84 47.4355 83.5195C46.989 83.039 46.7515 82.401 46.775 81.7455V31.5644C46.775 28.6604 47.8423 28.537 49.1563 28.537H53.8463C54.1149 28.537 54.34 28.8492 54.34 29.263V29.3864C54.34 30.2866 54.8336 30.2939 55.4362 30.2939H66.2826C66.8925 30.2939 67.3862 30.2939 67.3862 29.3864V29.2194C67.3862 28.8419 67.604 28.4934 67.8799 28.4934H72.5698C73.8839 28.537 74.9438 28.9218 74.9438 31.5644Z" fill="#9226C3"/>
<path opacity="0.2" d="M74.9447 37.9675V81.7453C74.9573 82.0695 74.9059 82.3931 74.7934 82.6974C74.6809 83.0017 74.5095 83.2809 74.289 83.5189C74.0685 83.7569 73.8032 83.9491 73.5084 84.0846C73.2135 84.22 72.8949 84.2959 72.5706 84.3081H49.1571C48.8329 84.2959 48.5142 84.22 48.2194 84.0846C47.9246 83.9491 47.6593 83.7569 47.4388 83.5189C47.2183 83.2809 47.0469 83.0017 46.9344 82.6974C46.8219 82.3931 46.7705 82.0695 46.7831 81.7453V48.9011C52.9469 48.1097 59.1251 57.1122 64.875 54.4622C70.124 52.0302 69.8844 44.3418 71.8374 40.8352C72.5357 39.5684 73.626 38.5621 74.9447 37.9675Z" fill="white"/>
<path opacity="0.2" d="M74.9447 66.7899V81.7455C74.9573 82.0697 74.9059 82.3932 74.7934 82.6976C74.6809 83.0019 74.5095 83.2811 74.289 83.5191C74.0685 83.7571 73.8032 83.9493 73.5084 84.0847C73.2135 84.2202 72.8949 84.2961 72.5706 84.3083H49.1571C48.8329 84.2961 48.5142 84.2202 48.2194 84.0847C47.9246 83.9493 47.6593 83.7571 47.4388 83.5191C47.2183 83.2811 47.0469 83.0019 46.9344 82.6976C46.8219 82.3932 46.7705 82.0697 46.7831 81.7455V62.1943C50.1227 68.0386 53.8689 69.7229 57.2738 68.859C61.1652 67.8717 66.7118 62.8332 71.9681 64.5901C73.1646 64.9965 74.205 65.7653 74.9447 66.7899Z" fill="white"/>
<path d="M62.3408 29.1322H59.3788C59.3306 29.1322 59.2845 29.1131 59.2504 29.0791C59.2164 29.045 59.1973 28.9989 59.1973 28.9507C59.1972 28.9019 59.2161 28.8549 59.25 28.8198C59.2838 28.7846 59.33 28.7638 59.3788 28.762H62.3408C62.3896 28.7638 62.4358 28.7846 62.4696 28.8198C62.5035 28.8549 62.5224 28.9019 62.5223 28.9507C62.5223 28.9989 62.5032 29.045 62.4692 29.0791C62.4351 29.1131 62.389 29.1322 62.3408 29.1322Z" fill="#263238"/>
<path d="M53.0339 29.6185L52.9904 29.6621C52.934 29.6038 52.8662 29.5576 52.7913 29.5263C52.7164 29.4951 52.6359 29.4796 52.5548 29.4806C52.3914 29.4818 52.235 29.5469 52.1192 29.6621L52.0684 29.6185C52.0842 29.5979 52.1039 29.5806 52.1264 29.5677C52.164 29.5306 52.2084 29.501 52.2571 29.4806C52.3115 29.4515 52.3704 29.4319 52.4314 29.4225H52.5185H52.6564C52.7091 29.4116 52.7635 29.4116 52.8161 29.4225L52.925 29.4733C52.9617 29.4933 52.9959 29.5177 53.0267 29.5459L53.0775 29.5895L53.0339 29.6185Z" fill="#263238"/>
<path d="M52.2347 29.8291L52.1621 29.7637C52.2394 29.6835 52.3419 29.6322 52.4525 29.6185C52.5315 29.6036 52.6129 29.6092 52.6892 29.6346C52.7654 29.66 52.8339 29.7044 52.8881 29.7637L52.8155 29.8291C52.7372 29.7545 52.6332 29.7129 52.5251 29.7129C52.417 29.7129 52.313 29.7545 52.2347 29.8291Z" fill="#263238"/>
<path d="M52.7515 29.9017L52.6789 29.9743C52.6366 29.9375 52.5824 29.9173 52.5264 29.9173C52.4704 29.9173 52.4162 29.9375 52.3739 29.9743L52.3086 29.9017C52.3681 29.8445 52.4475 29.8125 52.53 29.8125C52.6126 29.8125 52.6919 29.8445 52.7515 29.9017Z" fill="#263238"/>
<path d="M52.593 30.0404C52.593 30.0534 52.5891 30.0662 52.5818 30.0771C52.5746 30.0879 52.5643 30.0964 52.5522 30.1014C52.5402 30.1064 52.5269 30.1077 52.5141 30.1051C52.5013 30.1026 52.4895 30.0963 52.4803 30.0871C52.471 30.0778 52.4648 30.0661 52.4622 30.0533C52.4597 30.0405 52.461 30.0272 52.466 30.0151C52.471 30.0031 52.4794 29.9927 52.4903 29.9855C52.5011 29.9782 52.5139 29.9744 52.527 29.9744C52.5445 29.9744 52.5613 29.9813 52.5736 29.9937C52.586 30.0061 52.593 30.0229 52.593 30.0404Z" fill="#263238"/>
<path d="M48.6133 29.7566C48.6133 29.7193 48.6244 29.6828 48.6451 29.6518C48.6658 29.6207 48.6953 29.5965 48.7298 29.5822C48.7643 29.568 48.8023 29.5642 48.8389 29.5715C48.8755 29.5788 48.9091 29.5968 48.9355 29.6232C48.9619 29.6496 48.9799 29.6832 48.9872 29.7198C48.9945 29.7564 48.9907 29.7944 48.9764 29.8289C48.9621 29.8634 48.938 29.8928 48.9069 29.9136C48.8759 29.9343 48.8394 29.9454 48.802 29.9454C48.752 29.9454 48.704 29.9255 48.6686 29.8901C48.6332 29.8547 48.6133 29.8067 48.6133 29.7566Z" fill="#263238"/>
<path d="M49.2012 29.7566C49.2012 29.7193 49.2122 29.6828 49.233 29.6518C49.2537 29.6207 49.2832 29.5965 49.3177 29.5822C49.3522 29.568 49.3901 29.5642 49.4268 29.5715C49.4634 29.5788 49.497 29.5968 49.5234 29.6232C49.5498 29.6496 49.5678 29.6832 49.5751 29.7198C49.5824 29.7564 49.5786 29.7944 49.5643 29.8289C49.55 29.8634 49.5258 29.8928 49.4948 29.9136C49.4638 29.9343 49.4273 29.9454 49.3899 29.9454C49.3399 29.9454 49.2919 29.9255 49.2565 29.8901C49.2211 29.8547 49.2012 29.8067 49.2012 29.7566Z" fill="#263238"/>
<path d="M49.9778 29.9454C50.0821 29.9454 50.1666 29.8609 50.1666 29.7566C50.1666 29.6524 50.0821 29.5679 49.9778 29.5679C49.8736 29.5679 49.7891 29.6524 49.7891 29.7566C49.7891 29.8609 49.8736 29.9454 49.9778 29.9454Z" fill="#263238"/>
<path d="M50.5657 29.9454C50.67 29.9454 50.7545 29.8609 50.7545 29.7566C50.7545 29.6524 50.67 29.5679 50.5657 29.5679C50.4615 29.5679 50.377 29.6524 50.377 29.7566C50.377 29.8609 50.4615 29.9454 50.5657 29.9454Z" fill="#263238"/>
<path d="M51.1536 29.9454C51.2578 29.9454 51.3424 29.8609 51.3424 29.7566C51.3424 29.6524 51.2578 29.5679 51.1536 29.5679C51.0494 29.5679 50.9648 29.6524 50.9648 29.7566C50.9648 29.8609 51.0494 29.9454 51.1536 29.9454Z" fill="#263238"/>
<path d="M72.8318 30.163H71.3145V29.437H72.8318V30.163ZM71.3798 30.0832H72.7447V29.5387H71.3798V30.0832Z" fill="#263238"/>
<path d="M72.4176 29.5823H71.4375V30.0469H72.4176V29.5823Z" fill="#263238"/>
<path d="M72.97 29.626H72.832V30.0035H72.97V29.626Z" fill="#263238"/>
<path d="M90.757 94.2544C90.757 94.2544 91.0256 82.3625 90.031 77.1062C89.0364 71.85 77.9503 53.7 73.892 55.8707C68.6503 58.6586 72.97 70.3907 75.8304 75.872C75.8304 75.872 63.7135 82.3262 64.984 91.4157C66.2545 100.505 90.757 94.2544 90.757 94.2544Z" fill="#F7A9A0"/>
<path d="M72.6645 57.1051C69.7605 63.1018 73.9495 70.0424 76.338 75.56C76.3756 75.6398 76.3935 75.7274 76.3903 75.8155C76.387 75.9037 76.3627 75.9897 76.3193 76.0665C76.2759 76.1433 76.2148 76.2086 76.141 76.2569C76.0672 76.3052 75.9829 76.3351 75.8952 76.344C70.9947 79.3932 65.0052 85.1069 64.6494 91.1908C64.6494 91.2273 64.6349 91.2624 64.609 91.2883C64.5831 91.3142 64.5481 91.3287 64.5115 91.3287C64.4749 91.3287 64.4398 91.3142 64.4139 91.2883C64.3881 91.2624 64.3735 91.2273 64.3735 91.1908C63.829 84.6568 69.2886 78.522 74.8715 75.5309C72.3378 69.9117 68.4101 62.7678 72.6136 57.0687C72.6354 57.047 72.6862 57.0688 72.6645 57.1051Z" fill="#263238"/>
<path d="M92.1074 115.345L124.777 128.718C124.777 128.718 133.947 100.404 135.508 84.7802C136.379 76.0246 131.239 75.7923 124.901 80.5984C102.743 97.4198 92.1074 115.345 92.1074 115.345Z" fill="#455A64"/>
<path d="M135.289 86.7402C135.289 86.9726 135.231 87.2049 135.195 87.4662C132.226 87.8946 129.242 88.2576 126.236 88.5044C122.547 88.8298 118.84 88.8905 115.143 88.6859L115.702 88.185C119.199 88.294 122.7 88.1921 126.185 87.8801C129.235 87.626 132.262 87.2267 135.289 86.7402ZM130.665 82.0212C129.539 81.0121 128.429 79.9884 127.318 78.9575L127.122 79.0737C128.247 80.1119 129.365 81.1646 130.49 82.21C132.066 83.662 133.663 85.114 135.326 86.4571C135.326 86.3264 135.362 86.203 135.376 86.0796C133.765 84.8163 132.204 83.4442 130.665 82.0503V82.0212ZM119.985 108.854C117.832 108.765 115.675 108.908 113.553 109.283C111.446 109.721 109.368 110.288 107.331 110.981C103.273 112.397 99.3435 114.155 95.5844 116.238C95.3956 116.339 95.2069 116.441 95.0254 116.55L95.7514 116.855L95.8603 116.789C99.5824 114.705 103.467 112.925 107.476 111.468C109.481 110.753 111.531 110.169 113.611 109.718C115.701 109.316 117.829 109.147 119.956 109.217C123.372 109.34 126.762 109.852 130.062 110.742C130.062 110.647 130.106 110.56 130.135 110.466C126.824 109.546 123.419 109.005 119.985 108.854Z" fill="#37474F"/>
<path d="M125.714 121.182C120.502 118.684 106.149 112.354 96.2459 109.566C96.1879 109.566 96.0862 109.783 96.1443 109.805C103.985 113.435 120.139 119.534 125.562 121.537C125.663 121.588 125.809 121.225 125.714 121.182Z" fill="#263238"/>
<path d="M133.72 99.6631C133.06 101.333 132.428 103.017 131.804 104.702C131.847 104.498 131.905 104.288 131.949 104.077C132.486 101.681 133.009 99.2855 133.474 96.868C133.474 96.8099 133.386 96.7881 133.372 96.868C131.194 105.217 125.277 126.264 124.805 128.594C124.624 128.543 121.436 127.266 121.008 127.193C120.921 127.193 120.841 127.353 120.928 127.374C121.146 127.425 125.284 129.175 125.284 129.117C126.969 125.117 130.628 109.704 131.426 106.284C132.312 104.13 133.089 101.935 133.757 99.6994C133.757 99.6994 133.735 99.6268 133.72 99.6631Z" fill="#263238"/>
<path d="M134.389 79.7779C134.97 81.3897 144.132 91.1907 151.654 89.9419C154.107 89.5281 152.459 76.0608 152.459 76.0608L152.568 75.0372L154.02 60.735L136.393 52.1682L133.867 51.0574C133.867 51.0574 133.721 54.9996 133.591 59.9073C133.591 60.1396 133.591 60.3647 133.591 60.6333C133.591 60.9019 133.591 61.1778 133.591 61.4392C133.591 62.1652 133.533 62.8912 133.525 63.6607C133.525 64.2343 133.525 64.786 133.525 65.3814C133.525 65.9767 133.525 66.5575 133.525 67.1601C133.569 73.0334 134.15 79.0955 134.389 79.7779Z" fill="#F7A9A0"/>
<path d="M133.621 59.8783C135.49 63.6264 138.154 66.9221 141.426 69.5363C144.699 72.1504 148.501 74.0202 152.57 75.0154L154.022 60.7132L136.394 52.1682L133.868 51.0574C133.868 51.0574 133.752 54.9996 133.621 59.8783Z" fill="#263238"/>
<path d="M170.253 37.1544C176.416 61.6279 162.455 68.0893 157.185 69.4106C152.393 70.6158 135.92 74.0933 127.259 50.3894C118.598 26.6855 128.028 16.0787 138.875 12.7536C149.721 9.4285 164.082 12.6882 170.253 37.1544Z" fill="#F7A9A0"/>
<path d="M162.435 32.5734C161.854 32.6025 161.273 32.6025 160.692 32.5734C160.076 32.6456 159.452 32.5184 158.914 32.2104C158.765 32.0794 158.664 31.9031 158.626 31.7089C158.588 31.5147 158.615 31.3133 158.703 31.136C158.931 30.811 159.242 30.5529 159.603 30.3883C159.964 30.2236 160.363 30.1584 160.758 30.1994C161.567 30.1542 162.365 30.4131 162.994 30.9254C163.13 31.0501 163.226 31.2116 163.272 31.3902C163.318 31.5689 163.31 31.757 163.251 31.9316C163.192 32.1062 163.083 32.2599 162.938 32.3738C162.793 32.4878 162.618 32.5571 162.435 32.5734Z" fill="#263238"/>
<path d="M146.616 36.1598C147.163 35.961 147.698 35.7332 148.221 35.4774C148.82 35.3141 149.349 34.9567 149.723 34.461C149.812 34.2832 149.838 34.081 149.799 33.8864C149.759 33.6918 149.656 33.5159 149.506 33.3865C149.171 33.1746 148.787 33.0555 148.391 33.0414C147.996 33.0274 147.603 33.119 147.255 33.3067C146.49 33.581 145.852 34.126 145.462 34.8385C145.383 35.007 145.355 35.1947 145.38 35.3789C145.406 35.5631 145.485 35.7358 145.608 35.8759C145.73 36.016 145.891 36.1174 146.07 36.1679C146.249 36.2183 146.439 36.2155 146.616 36.1598Z" fill="#263238"/>
<path d="M151.152 41.7284C151.152 41.6703 151.036 41.8373 151.058 41.9099C151.486 43.5724 151.689 45.5399 150.296 46.4474C150.252 46.4474 150.296 46.5563 150.332 46.5345C152.125 45.8883 151.827 43.2602 151.152 41.7284Z" fill="#263238"/>
<path d="M149.267 40.3343C146.522 40.7263 147.517 46.1858 150.058 45.8228C152.599 45.4598 151.568 40.0003 149.267 40.3343Z" fill="#263238"/>
<path d="M148.249 40.8135C147.828 41.2128 147.458 41.8444 146.892 42.0041C146.325 42.1638 145.636 41.7137 145.098 41.2781C145.047 41.2273 145.004 41.2781 145.018 41.358C145.193 42.4034 145.788 43.4053 146.942 43.3545C148.097 43.3036 148.554 42.2509 148.627 41.1765C148.634 40.9151 148.416 40.6537 148.249 40.8135Z" fill="#263238"/>
<path d="M160.67 38.9477C160.67 38.8824 160.815 39.0058 160.822 39.0711C161.062 40.7772 161.628 42.7011 163.254 42.977C163.305 42.977 163.32 43.0787 163.254 43.0787C161.345 43.1367 160.626 40.5957 160.67 38.9477Z" fill="#263238"/>
<path d="M161.876 36.915C164.562 36.2325 165.724 41.6558 163.234 42.2874C160.744 42.919 159.626 37.4885 161.876 36.915Z" fill="#263238"/>
<path d="M163.081 37.0312C163.567 37.2272 164.105 37.6555 164.627 37.5829C165.15 37.5103 165.542 36.8134 165.796 36.1309C165.796 36.0656 165.876 36.1309 165.898 36.1745C166.145 37.2054 166.036 38.3525 165.085 38.7663C164.134 39.1801 163.357 38.396 162.907 37.4159C162.798 37.2707 162.885 36.9513 163.081 37.0312Z" fill="#263238"/>
<path d="M153.716 55.1302C154.18 55.4714 154.66 55.9651 155.284 55.936C155.916 55.8388 156.519 55.6087 157.055 55.2608C157.066 55.2493 157.081 55.2424 157.096 55.2417C157.112 55.2411 157.127 55.2466 157.139 55.2572C157.151 55.2678 157.157 55.2826 157.158 55.2982C157.159 55.3139 157.153 55.3292 157.143 55.3407C156.944 55.7085 156.65 56.0156 156.29 56.2291C155.931 56.4426 155.52 56.5546 155.103 56.5531C154.744 56.5093 154.407 56.3604 154.133 56.1253C153.859 55.8902 153.661 55.5793 153.563 55.2318C153.52 55.1374 153.651 55.0793 153.716 55.1302Z" fill="#263238"/>
<path d="M160.301 47.2385C160.301 47.2385 161.143 49.6997 161.375 50.8685C160.307 51.3538 159.128 51.5425 157.961 51.4147C156.795 51.287 155.685 50.8475 154.747 50.1425C154.63 50.0554 154.747 49.8957 154.892 49.9465C156.612 50.6907 158.526 50.8638 160.351 50.4402C160.351 50.0917 158.761 46.2657 158.95 46.2149C159.894 46.1192 160.846 46.1485 161.782 46.302C160.177 41.1184 157.752 36.2396 156.235 31.056C156.225 31.0183 156.229 30.9785 156.246 30.9434C156.263 30.9083 156.291 30.8802 156.327 30.8639C156.362 30.8475 156.402 30.844 156.439 30.8539C156.477 30.8638 156.51 30.8865 156.533 30.9181C159.437 35.8549 161.411 41.8081 163.205 47.0861C163.451 47.7685 160.816 47.3474 160.301 47.2385Z" fill="#263238"/>
<path d="M159.721 51.0863C159.222 52.0422 158.484 52.8526 157.579 53.4386C157.078 53.7434 156.495 53.8854 155.909 53.8451C154.624 53.7362 154.399 52.6182 154.457 51.6163C154.492 51.0864 154.59 50.5624 154.748 50.0554C156.253 50.9217 157.996 51.283 159.721 51.0863Z" fill="#263238"/>
<path d="M157.579 53.4386C157.078 53.7434 156.495 53.8854 155.909 53.8451C154.624 53.7362 154.399 52.6182 154.457 51.6163C155.793 51.5219 157.245 52.1826 157.579 53.4386Z" fill="#FF9ABB"/>
<path d="M152.785 16.1149C152.785 16.1149 153.838 19.8611 152.575 22.5981C149.997 28.2246 143.238 26.867 140.959 29.1321C138.839 31.2375 139.659 35.5136 137.735 37.619C135.071 40.523 131.375 39.4776 130.962 41.416C130.548 43.3545 129.357 49.5255 126.903 50.3458C124.449 51.1662 110.931 17.3709 144.727 11.2217C144.727 11.2217 149.119 9.34135 156.023 12.6737C162.927 16.006 167.69 28.8708 167.69 28.8708C167.017 28.5478 166.396 28.127 165.846 27.622C164.27 26.2789 163.668 25.023 162.499 24.1518C160.691 22.7869 159.718 23.3314 157.838 21.9738C154.978 19.9482 152.785 16.1149 152.785 16.1149Z" fill="#263238"/>
<path d="M152.271 14.3435C152.795 15.9329 153.136 17.5771 153.287 19.244C153.524 20.87 153.31 22.5295 152.67 24.0429C151.847 25.4139 150.559 26.4442 149.04 26.9469C147.516 27.5277 145.831 27.7164 144.198 28.3989C143.333 28.7537 142.588 29.3481 142.049 30.1122C141.585 30.8743 141.277 31.7206 141.141 32.6024C140.822 34.2577 140.503 35.8912 139.428 37.0891C138.891 37.6937 138.23 38.1743 137.489 38.4978C136.748 38.8212 135.946 38.9797 135.137 38.9622C133.518 38.9622 131.718 38.5629 130.143 39.3034C131.769 38.6935 133.439 39.2526 135.13 39.3542C136.007 39.4067 136.885 39.2684 137.704 38.9488C138.522 38.6292 139.262 38.1359 139.871 37.5029C141.171 36.2106 141.504 34.3448 141.846 32.7549C141.976 31.9815 142.257 31.2414 142.673 30.5769C143.147 29.9645 143.78 29.4947 144.503 29.2192C145.955 28.5731 147.668 28.348 149.287 27.7019C150.105 27.3901 150.871 26.9569 151.56 26.4169C152.281 25.8839 152.855 25.1771 153.229 24.3623C153.841 22.7411 153.994 20.9828 153.672 19.2803C153.4 17.5855 152.93 15.9286 152.271 14.3435Z" fill="#263238"/>
<path d="M152.91 15.7957C153.25 17.3349 153.799 18.8202 154.544 20.2097C155.268 21.6724 156.41 22.8875 157.825 23.7018C158.544 24.0533 159.295 24.3329 160.069 24.5367C160.74 24.7467 161.341 25.1387 161.804 25.6693C162.224 26.3424 162.711 26.9722 163.256 27.5496C163.847 28.0873 164.551 28.4844 165.317 28.7112C164.633 28.3517 164.028 27.8579 163.539 27.2592C163.073 26.6463 162.667 25.9899 162.326 25.299C161.835 24.6187 161.145 24.1065 160.352 23.8325C159.602 23.6257 158.873 23.3511 158.174 23.0121C156.885 22.2525 155.813 21.1752 155.059 19.883C154.252 18.5704 153.534 17.2049 152.91 15.7957Z" fill="#263238"/>
<path d="M131.545 50.4404C131.545 50.4404 124.851 43.5434 121.635 46.0844C118.418 48.6254 124.328 59.2032 128.72 60.0744C129.276 60.2248 129.856 60.2614 130.426 60.1822C130.997 60.1029 131.545 59.9093 132.038 59.6131C132.532 59.3168 132.96 58.924 133.299 58.4581C133.637 57.9922 133.877 57.4629 134.006 56.9018L131.545 50.4404Z" fill="#F7A9A0"/>
<path d="M123.406 49.0608C123.39 49.0608 123.376 49.0669 123.365 49.0778C123.354 49.0887 123.348 49.1035 123.348 49.1189C123.348 49.1343 123.354 49.149 123.365 49.1599C123.376 49.1708 123.39 49.1769 123.406 49.1769C126.506 49.9029 128.488 52.3278 129.991 54.9486C128.952 54.0121 127.682 53.6128 126.404 54.876C126.339 54.9414 126.404 55.0503 126.513 55.014C126.998 54.7701 127.547 54.6825 128.084 54.7631C128.621 54.8437 129.119 55.0886 129.511 55.4641C130.163 56.0941 130.745 56.7927 131.247 57.5477C131.428 57.7873 131.871 57.5477 131.726 57.2864L131.689 57.221C131.159 53.5112 127.442 48.7922 123.406 49.0608Z" fill="#263238"/>
<path d="M130.97 58.557C130.988 58.7604 130.945 58.9646 130.847 59.1436C130.749 59.3227 130.6 59.4685 130.418 59.5627C130.237 59.6569 130.032 59.6951 129.829 59.6726C129.626 59.6501 129.435 59.5678 129.279 59.4361C129.122 59.3045 129.009 59.1295 128.952 58.9333C128.896 58.737 128.899 58.5284 128.961 58.3339C129.023 58.1394 129.142 57.9678 129.302 57.8408C129.462 57.7138 129.656 57.6371 129.859 57.6205C129.994 57.6085 130.129 57.6233 130.258 57.664C130.387 57.7047 130.506 57.7704 130.609 57.8575C130.713 57.9446 130.798 58.0512 130.86 58.1712C130.921 58.2913 130.959 58.4224 130.97 58.557Z" fill="white"/>
<path d="M128.314 57.0977C128.323 57.2398 128.29 57.3815 128.219 57.5052C128.149 57.6288 128.043 57.7289 127.916 57.793C127.789 57.8571 127.646 57.8824 127.504 57.8657C127.363 57.849 127.229 57.7911 127.121 57.6991C127.012 57.6072 126.932 57.4852 126.892 57.3485C126.852 57.2118 126.854 57.0664 126.896 56.9303C126.938 56.7942 127.019 56.6735 127.129 56.5832C127.239 56.4929 127.373 56.437 127.515 56.4225C127.612 56.4125 127.71 56.4223 127.804 56.4511C127.897 56.4799 127.983 56.5273 128.058 56.5903C128.133 56.6533 128.194 56.7307 128.238 56.8179C128.282 56.9051 128.307 57.0003 128.314 57.0977Z" fill="white"/>
<path d="M121.808 48.9231H120.283C120.212 48.9231 120.142 48.9089 120.076 48.8815C120.01 48.854 119.951 48.8138 119.901 48.7631C119.851 48.7125 119.811 48.6524 119.785 48.5864C119.758 48.5204 119.745 48.4497 119.746 48.3786C119.748 48.2354 119.806 48.0988 119.908 47.9982C120.01 47.8977 120.147 47.8413 120.291 47.8413H121.808C121.952 47.8432 122.089 47.9012 122.191 48.0029C122.293 48.1046 122.351 48.242 122.352 48.3858C122.351 48.529 122.292 48.6656 122.19 48.7661C122.089 48.8667 121.951 48.9231 121.808 48.9231Z" fill="#9226C3"/>
<path d="M122.004 50.4911L120.509 50.8106C120.439 50.8255 120.368 50.8266 120.298 50.8139C120.229 50.8011 120.162 50.7748 120.103 50.7363C120.044 50.6979 119.993 50.6481 119.953 50.5898C119.912 50.5315 119.884 50.4659 119.87 50.3967C119.839 50.2562 119.866 50.1094 119.943 49.9884C120.021 49.8674 120.143 49.7819 120.283 49.7506L121.772 49.4312C121.912 49.4009 122.059 49.4274 122.18 49.5049C122.301 49.5824 122.387 49.7047 122.418 49.845C122.446 49.9853 122.419 50.1312 122.342 50.2518C122.264 50.3723 122.143 50.4582 122.004 50.4911Z" fill="#9226C3"/>
<path d="M123.922 81.368C124.648 80.642 131.378 74.7106 140.845 75.2841C150.762 75.894 159.866 82.9579 159.866 82.9579C159.866 82.9579 162.821 93.1219 153.956 94.0222C141.593 95.2636 123.922 81.368 123.922 81.368Z" fill="#F7A9A0"/>
<path d="M115.984 205.252C118.932 198.827 123.419 193.121 127.804 187.654C127.898 187.538 128.087 187.69 127.992 187.814C123.564 193.194 120.471 199.887 116.267 205.434C116.151 205.586 115.904 205.427 115.984 205.252Z" fill="#263238"/>
<path d="M125.505 212.425C126.316 211.029 127.307 209.746 128.452 208.607C129.585 207.329 130.746 206.073 131.923 204.839C134.275 202.356 136.695 199.936 139.183 197.579C139.291 197.477 139.48 197.579 139.371 197.731C137.026 200.207 134.725 202.719 132.489 205.296C131.364 206.581 130.26 207.881 129.157 209.187C128.2 210.484 127.102 211.67 125.882 212.723C125.843 212.773 125.785 212.806 125.722 212.813C125.658 212.82 125.595 212.803 125.545 212.763C125.495 212.724 125.462 212.666 125.455 212.603C125.447 212.539 125.465 212.476 125.505 212.425Z" fill="#263238"/>
<path d="M137.308 220.89C137.874 219.62 139.173 218.575 140.139 217.594C141.243 216.491 142.317 215.373 143.413 214.255C145.591 212.019 147.769 209.775 149.838 207.459C149.94 207.343 150.129 207.496 150.027 207.612C147.915 209.979 145.838 212.367 143.704 214.712C142.658 215.859 141.606 217.004 140.546 218.146C139.645 219.112 138.629 220.426 137.417 221.007C137.401 221.012 137.383 221.013 137.367 221.009C137.351 221.005 137.336 220.996 137.324 220.984C137.313 220.972 137.305 220.956 137.302 220.94C137.299 220.923 137.301 220.906 137.308 220.89Z" fill="#263238"/>
</svg>
