<svg width="62" height="30" viewBox="0 0 62 30" fill="none" xmlns="http://www.w3.org/2000/svg">
<path d="M0 6C0 2.68629 2.68629 0 6 0H56C59.3137 0 62 2.68629 62 6V18C62 21.3137 59.3137 24 56 24H34L30.5 29.5L26.5 24H6C2.68629 24 0 21.3137 0 18V6Z" fill="#383737"/>
<path d="M29.564 15.296V13.976L33.488 8.36H35.444V13.832H36.5V15.296H35.444V17H33.764V15.296H29.564ZM33.872 10.16L31.412 13.832H33.872V10.16ZM43.3296 9.704H39.4416V11.756C39.6096 11.548 39.8496 11.38 40.1616 11.252C40.4736 11.116 40.8056 11.048 41.1576 11.048C41.7976 11.048 42.3216 11.188 42.7296 11.468C43.1376 11.748 43.4336 12.108 43.6176 12.548C43.8016 12.98 43.8936 13.444 43.8936 13.94C43.8936 14.86 43.6296 15.6 43.1016 16.16C42.5816 16.72 41.8376 17 40.8696 17C39.9576 17 39.2296 16.772 38.6856 16.316C38.1416 15.86 37.8336 15.264 37.7616 14.528H39.3936C39.4656 14.848 39.6256 15.104 39.8736 15.296C40.1296 15.488 40.4536 15.584 40.8456 15.584C41.3176 15.584 41.6736 15.436 41.9136 15.14C42.1536 14.844 42.2736 14.452 42.2736 13.964C42.2736 13.468 42.1496 13.092 41.9016 12.836C41.6616 12.572 41.3056 12.44 40.8336 12.44C40.4976 12.44 40.2176 12.524 39.9936 12.692C39.7696 12.86 39.6096 13.084 39.5136 13.364H37.9056V8.228H43.3296V9.704Z" fill="white"/>
<path d="M23 9L16.4667 14.88L13.9778 11.52L9 16" stroke="#00AC4F" stroke-width="2" stroke-linecap="round" stroke-linejoin="round"/>
<path d="M20 9H23V12" stroke="#00AC4F" stroke-width="2" stroke-linecap="round" stroke-linejoin="round"/>
</svg>
